M48
; DRILL file {KiCad (6.0.1)} date Thu Feb 10 17:55:33 2022
; FORMAT={-:-/ absolute / inch / decimal}
; #@! TF.CreationDate,2022-02-10T17:55:33+03:30
; #@! TF.GenerationSoftware,Kicad,Pcbnew,(6.0.1)
; #@! TF.FileFunction,Plated,1,2,PTH
FMAT,2
INCH
; #@! TA.AperFunction,Plated,PTH,ViaDrill
T1C0.0157
; #@! TA.AperFunction,Plated,PTH,ComponentDrill
T2C0.0236
; #@! TA.AperFunction,Plated,PTH,ComponentDrill
T3C0.0276
; #@! TA.AperFunction,Plated,PTH,ComponentDrill
T4C0.0315
; #@! TA.AperFunction,Plated,PTH,ComponentDrill
T5C0.0354
; #@! TA.AperFunction,Plated,PTH,ComponentDrill
T6C0.0394
; #@! TA.AperFunction,Plated,PTH,ComponentDrill
T7C0.0433
%
G90
G05
T1
X5.536Y-3.916
X5.642Y-4.01
X6.146Y-3.628
T2
X4.5463Y-4.45
X4.5617Y-4.05
X4.6208Y-4.05
X4.625Y-4.45
T3
X4.35Y-3.475
X4.35Y-3.675
X4.65Y-3.225
X4.65Y-3.425
T4
X4.7504Y-3.5496
X4.7504Y-3.8496
X4.8504Y-3.5496
X4.8504Y-3.8496
X4.9504Y-3.5496
X4.9504Y-3.8496
X5.0504Y-3.5496
X5.0504Y-3.8496
X5.1504Y-3.5496
X5.1504Y-3.8496
X5.2504Y-3.5496
X5.2504Y-3.8496
X5.3504Y-3.5496
X5.3504Y-3.8496
X5.4504Y-3.5496
X5.4504Y-3.8496
X5.5504Y-3.5496
X5.5504Y-3.8496
X5.5516Y-3.9758
X5.5516Y-4.0742
X5.6008Y-3.35
X5.6504Y-3.5496
X5.6504Y-3.8496
X5.6992Y-3.35
X5.7504Y-3.5496
X5.7504Y-3.8496
X5.8016Y-3.9758
X5.8016Y-4.0742
X5.8504Y-3.5496
X5.8504Y-3.8496
X5.9504Y-3.5496
X5.9504Y-3.8496
X5.9766Y-4.275
X6.0504Y-3.5496
X6.0504Y-3.8496
X6.075Y-4.275
T5
X4.4748Y-3.625
X4.5748Y-3.625
T6
X4.0012Y-3.099
X4.1012Y-3.099
X4.2012Y-3.099
X4.3012Y-3.099
X4.4012Y-3.099
X4.75Y-3.076
X4.85Y-3.076
X4.85Y-4.475
X4.95Y-3.076
X4.95Y-4.475
X5.05Y-3.076
X5.05Y-4.475
X5.15Y-3.076
X5.15Y-4.475
X5.25Y-3.076
X5.25Y-4.475
X5.35Y-3.076
X5.35Y-4.475
X5.45Y-3.076
X5.5766Y-4.225
X5.625Y-4.476
X5.6766Y-4.225
X5.725Y-4.476
X5.7494Y-3.077
X5.7766Y-4.225
X5.825Y-4.476
X5.8494Y-3.077
X5.925Y-4.476
X5.9494Y-3.077
X6.025Y-4.476
X6.0494Y-3.077
X6.125Y-4.476
X6.1494Y-3.077
X6.225Y-4.476
X6.2494Y-3.077
X6.325Y-4.476
X6.3494Y-3.077
X6.35Y-3.7748
X6.35Y-3.8748
X6.425Y-4.476
X6.4494Y-3.077
T7
X3.925Y-3.3364
X3.925Y-3.5136
X4.0Y-3.775
X4.0Y-3.975
X4.1809Y-3.3364
X4.1809Y-3.5136
T6
G00X4.1138Y-4.3606
M15
G01X4.1138Y-4.4394
M16
G05
G00X4.1925Y-4.585
M15
G01X4.2713Y-4.585
M16
G05
G00X4.35Y-4.3606
M15
G01X4.35Y-4.4394
M16
G05
T0
M30
