%TF.GenerationSoftware,KiCad,Pcbnew,(6.0.1)*%
%TF.CreationDate,2022-02-10T17:55:29+03:30*%
%TF.ProjectId,PIC Microcontroller Development Board,50494320-4d69-4637-926f-636f6e74726f,rev?*%
%TF.SameCoordinates,Original*%
%TF.FileFunction,Legend,Top*%
%TF.FilePolarity,Positive*%
%FSLAX46Y46*%
G04 Gerber Fmt 4.6, Leading zero omitted, Abs format (unit mm)*
G04 Created by KiCad (PCBNEW (6.0.1)) date 2022-02-10 17:55:29*
%MOMM*%
%LPD*%
G01*
G04 APERTURE LIST*
%ADD10C,0.150000*%
%ADD11C,0.120000*%
G04 APERTURE END LIST*
D10*
%TO.C,U2*%
X117782380Y-94731904D02*
X118591904Y-94731904D01*
X118687142Y-94684285D01*
X118734761Y-94636666D01*
X118782380Y-94541428D01*
X118782380Y-94350952D01*
X118734761Y-94255714D01*
X118687142Y-94208095D01*
X118591904Y-94160476D01*
X117782380Y-94160476D01*
X117877619Y-93731904D02*
X117830000Y-93684285D01*
X117782380Y-93589047D01*
X117782380Y-93350952D01*
X117830000Y-93255714D01*
X117877619Y-93208095D01*
X117972857Y-93160476D01*
X118068095Y-93160476D01*
X118210952Y-93208095D01*
X118782380Y-93779523D01*
X118782380Y-93160476D01*
%TO.C,U1*%
X96782380Y-99186904D02*
X97591904Y-99186904D01*
X97687142Y-99139285D01*
X97734761Y-99091666D01*
X97782380Y-98996428D01*
X97782380Y-98805952D01*
X97734761Y-98710714D01*
X97687142Y-98663095D01*
X97591904Y-98615476D01*
X96782380Y-98615476D01*
X97782380Y-97615476D02*
X97782380Y-98186904D01*
X97782380Y-97901190D02*
X96782380Y-97901190D01*
X96925238Y-97996428D01*
X97020476Y-98091666D01*
X97068095Y-98186904D01*
%TO.C,SW1*%
X101611666Y-83149761D02*
X101754523Y-83197380D01*
X101992619Y-83197380D01*
X102087857Y-83149761D01*
X102135476Y-83102142D01*
X102183095Y-83006904D01*
X102183095Y-82911666D01*
X102135476Y-82816428D01*
X102087857Y-82768809D01*
X101992619Y-82721190D01*
X101802142Y-82673571D01*
X101706904Y-82625952D01*
X101659285Y-82578333D01*
X101611666Y-82483095D01*
X101611666Y-82387857D01*
X101659285Y-82292619D01*
X101706904Y-82245000D01*
X101802142Y-82197380D01*
X102040238Y-82197380D01*
X102183095Y-82245000D01*
X102516428Y-82197380D02*
X102754523Y-83197380D01*
X102945000Y-82483095D01*
X103135476Y-83197380D01*
X103373571Y-82197380D01*
X104278333Y-83197380D02*
X103706904Y-83197380D01*
X103992619Y-83197380D02*
X103992619Y-82197380D01*
X103897380Y-82340238D01*
X103802142Y-82435476D01*
X103706904Y-82483095D01*
%TO.C,R2*%
X112923580Y-90031866D02*
X112447390Y-90365200D01*
X112923580Y-90603295D02*
X111923580Y-90603295D01*
X111923580Y-90222342D01*
X111971200Y-90127104D01*
X112018819Y-90079485D01*
X112114057Y-90031866D01*
X112256914Y-90031866D01*
X112352152Y-90079485D01*
X112399771Y-90127104D01*
X112447390Y-90222342D01*
X112447390Y-90603295D01*
X112018819Y-89650914D02*
X111971200Y-89603295D01*
X111923580Y-89508057D01*
X111923580Y-89269961D01*
X111971200Y-89174723D01*
X112018819Y-89127104D01*
X112114057Y-89079485D01*
X112209295Y-89079485D01*
X112352152Y-89127104D01*
X112923580Y-89698533D01*
X112923580Y-89079485D01*
%TO.C,R1*%
X116642380Y-84621666D02*
X116166190Y-84955000D01*
X116642380Y-85193095D02*
X115642380Y-85193095D01*
X115642380Y-84812142D01*
X115690000Y-84716904D01*
X115737619Y-84669285D01*
X115832857Y-84621666D01*
X115975714Y-84621666D01*
X116070952Y-84669285D01*
X116118571Y-84716904D01*
X116166190Y-84812142D01*
X116166190Y-85193095D01*
X116642380Y-83669285D02*
X116642380Y-84240714D01*
X116642380Y-83955000D02*
X115642380Y-83955000D01*
X115785238Y-84050238D01*
X115880476Y-84145476D01*
X115928095Y-84240714D01*
%TO.C,J8*%
X138327380Y-107648333D02*
X139041666Y-107648333D01*
X139184523Y-107695952D01*
X139279761Y-107791190D01*
X139327380Y-107934047D01*
X139327380Y-108029285D01*
X138755952Y-107029285D02*
X138708333Y-107124523D01*
X138660714Y-107172142D01*
X138565476Y-107219761D01*
X138517857Y-107219761D01*
X138422619Y-107172142D01*
X138375000Y-107124523D01*
X138327380Y-107029285D01*
X138327380Y-106838809D01*
X138375000Y-106743571D01*
X138422619Y-106695952D01*
X138517857Y-106648333D01*
X138565476Y-106648333D01*
X138660714Y-106695952D01*
X138708333Y-106743571D01*
X138755952Y-106838809D01*
X138755952Y-107029285D01*
X138803571Y-107124523D01*
X138851190Y-107172142D01*
X138946428Y-107219761D01*
X139136904Y-107219761D01*
X139232142Y-107172142D01*
X139279761Y-107124523D01*
X139327380Y-107029285D01*
X139327380Y-106838809D01*
X139279761Y-106743571D01*
X139232142Y-106695952D01*
X139136904Y-106648333D01*
X138946428Y-106648333D01*
X138851190Y-106695952D01*
X138803571Y-106743571D01*
X138755952Y-106838809D01*
%TO.C,J7*%
X98312380Y-79048333D02*
X99026666Y-79048333D01*
X99169523Y-79095952D01*
X99264761Y-79191190D01*
X99312380Y-79334047D01*
X99312380Y-79429285D01*
X98312380Y-78667380D02*
X98312380Y-78000714D01*
X99312380Y-78429285D01*
%TO.C,J6*%
X166037380Y-78488333D02*
X166751666Y-78488333D01*
X166894523Y-78535952D01*
X166989761Y-78631190D01*
X167037380Y-78774047D01*
X167037380Y-78869285D01*
X166037380Y-77583571D02*
X166037380Y-77774047D01*
X166085000Y-77869285D01*
X166132619Y-77916904D01*
X166275476Y-78012142D01*
X166465952Y-78059761D01*
X166846904Y-78059761D01*
X166942142Y-78012142D01*
X166989761Y-77964523D01*
X167037380Y-77869285D01*
X167037380Y-77678809D01*
X166989761Y-77583571D01*
X166942142Y-77535952D01*
X166846904Y-77488333D01*
X166608809Y-77488333D01*
X166513571Y-77535952D01*
X166465952Y-77583571D01*
X166418333Y-77678809D01*
X166418333Y-77869285D01*
X166465952Y-77964523D01*
X166513571Y-78012142D01*
X166608809Y-78059761D01*
%TO.C,J5*%
X140652380Y-78463333D02*
X141366666Y-78463333D01*
X141509523Y-78510952D01*
X141604761Y-78606190D01*
X141652380Y-78749047D01*
X141652380Y-78844285D01*
X140652380Y-77510952D02*
X140652380Y-77987142D01*
X141128571Y-78034761D01*
X141080952Y-77987142D01*
X141033333Y-77891904D01*
X141033333Y-77653809D01*
X141080952Y-77558571D01*
X141128571Y-77510952D01*
X141223809Y-77463333D01*
X141461904Y-77463333D01*
X141557142Y-77510952D01*
X141604761Y-77558571D01*
X141652380Y-77653809D01*
X141652380Y-77891904D01*
X141604761Y-77987142D01*
X141557142Y-78034761D01*
%TO.C,J4*%
X119872380Y-113998333D02*
X120586666Y-113998333D01*
X120729523Y-114045952D01*
X120824761Y-114141190D01*
X120872380Y-114284047D01*
X120872380Y-114379285D01*
X120205714Y-113093571D02*
X120872380Y-113093571D01*
X119824761Y-113331666D02*
X120539047Y-113569761D01*
X120539047Y-112950714D01*
%TO.C,J3*%
X139557380Y-114023333D02*
X140271666Y-114023333D01*
X140414523Y-114070952D01*
X140509761Y-114166190D01*
X140557380Y-114309047D01*
X140557380Y-114404285D01*
X139557380Y-113642380D02*
X139557380Y-113023333D01*
X139938333Y-113356666D01*
X139938333Y-113213809D01*
X139985952Y-113118571D01*
X140033571Y-113070952D01*
X140128809Y-113023333D01*
X140366904Y-113023333D01*
X140462142Y-113070952D01*
X140509761Y-113118571D01*
X140557380Y-113213809D01*
X140557380Y-113499523D01*
X140509761Y-113594761D01*
X140462142Y-113642380D01*
%TO.C,J2*%
X101706666Y-116962380D02*
X101706666Y-117676666D01*
X101659047Y-117819523D01*
X101563809Y-117914761D01*
X101420952Y-117962380D01*
X101325714Y-117962380D01*
X102135238Y-117057619D02*
X102182857Y-117010000D01*
X102278095Y-116962380D01*
X102516190Y-116962380D01*
X102611428Y-117010000D01*
X102659047Y-117057619D01*
X102706666Y-117152857D01*
X102706666Y-117248095D01*
X102659047Y-117390952D01*
X102087619Y-117962380D01*
X102706666Y-117962380D01*
%TO.C,J1*%
X160956666Y-93002380D02*
X160956666Y-93716666D01*
X160909047Y-93859523D01*
X160813809Y-93954761D01*
X160670952Y-94002380D01*
X160575714Y-94002380D01*
X161956666Y-94002380D02*
X161385238Y-94002380D01*
X161670952Y-94002380D02*
X161670952Y-93002380D01*
X161575714Y-93145238D01*
X161480476Y-93240476D01*
X161385238Y-93288095D01*
%TO.C,D1*%
X114191904Y-89567380D02*
X114191904Y-88567380D01*
X114430000Y-88567380D01*
X114572857Y-88615000D01*
X114668095Y-88710238D01*
X114715714Y-88805476D01*
X114763333Y-88995952D01*
X114763333Y-89138809D01*
X114715714Y-89329285D01*
X114668095Y-89424523D01*
X114572857Y-89519761D01*
X114430000Y-89567380D01*
X114191904Y-89567380D01*
X115715714Y-89567380D02*
X115144285Y-89567380D01*
X115430000Y-89567380D02*
X115430000Y-88567380D01*
X115334761Y-88710238D01*
X115239523Y-88805476D01*
X115144285Y-88853095D01*
%TO.C,C6*%
X145667142Y-102401666D02*
X145714761Y-102449285D01*
X145762380Y-102592142D01*
X145762380Y-102687380D01*
X145714761Y-102830238D01*
X145619523Y-102925476D01*
X145524285Y-102973095D01*
X145333809Y-103020714D01*
X145190952Y-103020714D01*
X145000476Y-102973095D01*
X144905238Y-102925476D01*
X144810000Y-102830238D01*
X144762380Y-102687380D01*
X144762380Y-102592142D01*
X144810000Y-102449285D01*
X144857619Y-102401666D01*
X144762380Y-101544523D02*
X144762380Y-101735000D01*
X144810000Y-101830238D01*
X144857619Y-101877857D01*
X145000476Y-101973095D01*
X145190952Y-102020714D01*
X145571904Y-102020714D01*
X145667142Y-101973095D01*
X145714761Y-101925476D01*
X145762380Y-101830238D01*
X145762380Y-101639761D01*
X145714761Y-101544523D01*
X145667142Y-101496904D01*
X145571904Y-101449285D01*
X145333809Y-101449285D01*
X145238571Y-101496904D01*
X145190952Y-101544523D01*
X145143333Y-101639761D01*
X145143333Y-101830238D01*
X145190952Y-101925476D01*
X145238571Y-101973095D01*
X145333809Y-102020714D01*
%TO.C,C5*%
X143417142Y-102401666D02*
X143464761Y-102449285D01*
X143512380Y-102592142D01*
X143512380Y-102687380D01*
X143464761Y-102830238D01*
X143369523Y-102925476D01*
X143274285Y-102973095D01*
X143083809Y-103020714D01*
X142940952Y-103020714D01*
X142750476Y-102973095D01*
X142655238Y-102925476D01*
X142560000Y-102830238D01*
X142512380Y-102687380D01*
X142512380Y-102592142D01*
X142560000Y-102449285D01*
X142607619Y-102401666D01*
X142512380Y-101496904D02*
X142512380Y-101973095D01*
X142988571Y-102020714D01*
X142940952Y-101973095D01*
X142893333Y-101877857D01*
X142893333Y-101639761D01*
X142940952Y-101544523D01*
X142988571Y-101496904D01*
X143083809Y-101449285D01*
X143321904Y-101449285D01*
X143417142Y-101496904D01*
X143464761Y-101544523D01*
X143512380Y-101639761D01*
X143512380Y-101877857D01*
X143464761Y-101973095D01*
X143417142Y-102020714D01*
%TO.C,C4*%
X152888333Y-110992142D02*
X152840714Y-111039761D01*
X152697857Y-111087380D01*
X152602619Y-111087380D01*
X152459761Y-111039761D01*
X152364523Y-110944523D01*
X152316904Y-110849285D01*
X152269285Y-110658809D01*
X152269285Y-110515952D01*
X152316904Y-110325476D01*
X152364523Y-110230238D01*
X152459761Y-110135000D01*
X152602619Y-110087380D01*
X152697857Y-110087380D01*
X152840714Y-110135000D01*
X152888333Y-110182619D01*
X153745476Y-110420714D02*
X153745476Y-111087380D01*
X153507380Y-110039761D02*
X153269285Y-110754047D01*
X153888333Y-110754047D01*
%TO.C,C3*%
X116308333Y-116637142D02*
X116260714Y-116684761D01*
X116117857Y-116732380D01*
X116022619Y-116732380D01*
X115879761Y-116684761D01*
X115784523Y-116589523D01*
X115736904Y-116494285D01*
X115689285Y-116303809D01*
X115689285Y-116160952D01*
X115736904Y-115970476D01*
X115784523Y-115875238D01*
X115879761Y-115780000D01*
X116022619Y-115732380D01*
X116117857Y-115732380D01*
X116260714Y-115780000D01*
X116308333Y-115827619D01*
X116641666Y-115732380D02*
X117260714Y-115732380D01*
X116927380Y-116113333D01*
X117070238Y-116113333D01*
X117165476Y-116160952D01*
X117213095Y-116208571D01*
X117260714Y-116303809D01*
X117260714Y-116541904D01*
X117213095Y-116637142D01*
X117165476Y-116684761D01*
X117070238Y-116732380D01*
X116784523Y-116732380D01*
X116689285Y-116684761D01*
X116641666Y-116637142D01*
%TO.C,C2*%
X143343333Y-83397142D02*
X143295714Y-83444761D01*
X143152857Y-83492380D01*
X143057619Y-83492380D01*
X142914761Y-83444761D01*
X142819523Y-83349523D01*
X142771904Y-83254285D01*
X142724285Y-83063809D01*
X142724285Y-82920952D01*
X142771904Y-82730476D01*
X142819523Y-82635238D01*
X142914761Y-82540000D01*
X143057619Y-82492380D01*
X143152857Y-82492380D01*
X143295714Y-82540000D01*
X143343333Y-82587619D01*
X143724285Y-82587619D02*
X143771904Y-82540000D01*
X143867142Y-82492380D01*
X144105238Y-82492380D01*
X144200476Y-82540000D01*
X144248095Y-82587619D01*
X144295714Y-82682857D01*
X144295714Y-82778095D01*
X144248095Y-82920952D01*
X143676666Y-83492380D01*
X144295714Y-83492380D01*
%TO.C,C1*%
X116450733Y-99977142D02*
X116403114Y-100024761D01*
X116260257Y-100072380D01*
X116165019Y-100072380D01*
X116022161Y-100024761D01*
X115926923Y-99929523D01*
X115879304Y-99834285D01*
X115831685Y-99643809D01*
X115831685Y-99500952D01*
X115879304Y-99310476D01*
X115926923Y-99215238D01*
X116022161Y-99120000D01*
X116165019Y-99072380D01*
X116260257Y-99072380D01*
X116403114Y-99120000D01*
X116450733Y-99167619D01*
X117403114Y-100072380D02*
X116831685Y-100072380D01*
X117117400Y-100072380D02*
X117117400Y-99072380D01*
X117022161Y-99215238D01*
X116926923Y-99310476D01*
X116831685Y-99358095D01*
D11*
%TO.C,U2*%
X119330000Y-91320000D02*
X119330000Y-92970000D01*
X155010000Y-91320000D02*
X119330000Y-91320000D01*
X119330000Y-94970000D02*
X119330000Y-96620000D01*
X119330000Y-96620000D02*
X155010000Y-96620000D01*
X155010000Y-96620000D02*
X155010000Y-91320000D01*
X119330000Y-94970000D02*
G75*
G03*
X119330000Y-92970000I0J1000000D01*
G01*
%TO.C,U1*%
X99840000Y-103545000D02*
X99840000Y-93305000D01*
X98330000Y-100275000D02*
X99840000Y-100275000D01*
X102971000Y-103545000D02*
X102971000Y-93305000D01*
X98330000Y-96574000D02*
X99840000Y-96574000D01*
X98330000Y-103545000D02*
X102971000Y-103545000D01*
X98330000Y-93305000D02*
X102971000Y-93305000D01*
X98330000Y-103545000D02*
X98330000Y-93305000D01*
%TO.C,SW1*%
X106445000Y-87745000D02*
X106445000Y-86245000D01*
X105195000Y-83745000D02*
X100695000Y-83745000D01*
X99445000Y-86245000D02*
X99445000Y-87745000D01*
X100695000Y-90245000D02*
X105195000Y-90245000D01*
%TO.C,R2*%
X109570000Y-88885000D02*
X109570000Y-92725000D01*
X111410000Y-88885000D02*
X111410000Y-92725000D01*
%TO.C,R1*%
X119030000Y-86375000D02*
X119030000Y-82535000D01*
X117190000Y-86375000D02*
X117190000Y-82535000D01*
%TO.C,J8*%
X140315000Y-107315000D02*
X140315000Y-105985000D01*
X142915000Y-105985000D02*
X148055000Y-105985000D01*
X142915000Y-108645000D02*
X148055000Y-108645000D01*
X142915000Y-108645000D02*
X142915000Y-105985000D01*
X140315000Y-105985000D02*
X141645000Y-105985000D01*
X148055000Y-108645000D02*
X148055000Y-105985000D01*
%TO.C,J7*%
X100300000Y-77385000D02*
X101630000Y-77385000D01*
X102900000Y-77385000D02*
X113120000Y-77385000D01*
X102900000Y-80045000D02*
X113120000Y-80045000D01*
X102900000Y-80045000D02*
X102900000Y-77385000D01*
X113120000Y-80045000D02*
X113120000Y-77385000D01*
X100300000Y-78715000D02*
X100300000Y-77385000D01*
%TO.C,J6*%
X165145000Y-79485000D02*
X163815000Y-79485000D01*
X162545000Y-76825000D02*
X162545000Y-79485000D01*
X162545000Y-79485000D02*
X144705000Y-79485000D01*
X144705000Y-76825000D02*
X144705000Y-79485000D01*
X162545000Y-76825000D02*
X144705000Y-76825000D01*
X165145000Y-78155000D02*
X165145000Y-79485000D01*
%TO.C,J5*%
X139760000Y-79460000D02*
X138430000Y-79460000D01*
X137160000Y-76800000D02*
X137160000Y-79460000D01*
X137160000Y-79460000D02*
X119320000Y-79460000D01*
X119320000Y-76800000D02*
X119320000Y-79460000D01*
X137160000Y-76800000D02*
X119320000Y-76800000D01*
X139760000Y-78130000D02*
X139760000Y-79460000D01*
%TO.C,J4*%
X137220000Y-114995000D02*
X137220000Y-112335000D01*
X124460000Y-114995000D02*
X137220000Y-114995000D01*
X121860000Y-112335000D02*
X123190000Y-112335000D01*
X124460000Y-112335000D02*
X137220000Y-112335000D01*
X124460000Y-114995000D02*
X124460000Y-112335000D01*
X121860000Y-113665000D02*
X121860000Y-112335000D01*
%TO.C,J3*%
X141545000Y-112360000D02*
X142875000Y-112360000D01*
X144145000Y-115020000D02*
X164525000Y-115020000D01*
X164525000Y-115020000D02*
X164525000Y-112360000D01*
X144145000Y-115020000D02*
X144145000Y-112360000D01*
X144145000Y-112360000D02*
X164525000Y-112360000D01*
X141545000Y-113690000D02*
X141545000Y-112360000D01*
%TO.C,J2*%
X96690000Y-107160000D02*
X111390000Y-107160000D01*
X96690000Y-116360000D02*
X96690000Y-107160000D01*
X111390000Y-116360000D02*
X109490000Y-116360000D01*
X111390000Y-113660000D02*
X111390000Y-116360000D01*
X111390000Y-107160000D02*
X111390000Y-109760000D01*
X105490000Y-116360000D02*
X96690000Y-116360000D01*
X111590000Y-108010000D02*
X111590000Y-106960000D01*
X110540000Y-106960000D02*
X111590000Y-106960000D01*
%TO.C,J1*%
X159960000Y-95880000D02*
X159960000Y-94550000D01*
X159960000Y-99750000D02*
X162620000Y-99750000D01*
X159960000Y-97150000D02*
X159960000Y-99750000D01*
X159960000Y-97150000D02*
X162620000Y-97150000D01*
X159960000Y-94550000D02*
X161290000Y-94550000D01*
X162620000Y-97150000D02*
X162620000Y-99750000D01*
%TO.C,D1*%
X113370000Y-90839000D02*
X113370000Y-90995000D01*
X113370000Y-93155000D02*
X113370000Y-93311000D01*
X115971130Y-90995163D02*
G75*
G03*
X113889039Y-90995000I-1041130J-1079837D01*
G01*
X113370000Y-93310516D02*
G75*
G03*
X116602335Y-93153608I1560000J1235517D01*
G01*
X113889039Y-93155000D02*
G75*
G03*
X115971130Y-93154837I1040961J1080000D01*
G01*
X116602335Y-90996392D02*
G75*
G03*
X113370000Y-90839484I-1672335J-1078609D01*
G01*
%TO.C,C6*%
X148280000Y-102864000D02*
X148280000Y-101606000D01*
X146440000Y-102864000D02*
X146440000Y-101606000D01*
%TO.C,C5*%
X140090000Y-101606000D02*
X140090000Y-102864000D01*
X141930000Y-101606000D02*
X141930000Y-102864000D01*
%TO.C,C4*%
X153684000Y-107665000D02*
X152426000Y-107665000D01*
X153684000Y-109505000D02*
X152426000Y-109505000D01*
%TO.C,C3*%
X116155000Y-112190000D02*
X116155000Y-110974000D01*
X114874000Y-114381000D02*
X114874000Y-113870000D01*
X115034000Y-114546000D02*
X115034000Y-113870000D01*
X114714000Y-112190000D02*
X114714000Y-111888000D01*
X114914000Y-114426000D02*
X114914000Y-113870000D01*
X114994000Y-114508000D02*
X114994000Y-113870000D01*
X115034000Y-112190000D02*
X115034000Y-111514000D01*
X116195000Y-112190000D02*
X116195000Y-110968000D01*
X115554000Y-112190000D02*
X115554000Y-111160000D01*
X115875000Y-112190000D02*
X115875000Y-111036000D01*
X116035000Y-115064000D02*
X116035000Y-113870000D01*
X114434000Y-113567000D02*
X114434000Y-112493000D01*
X114394000Y-113400000D02*
X114394000Y-112660000D01*
X116395000Y-115109000D02*
X116395000Y-110951000D01*
X116275000Y-115101000D02*
X116275000Y-113870000D01*
X115714000Y-114970000D02*
X115714000Y-113870000D01*
X114594000Y-113970000D02*
X114594000Y-112090000D01*
X114954000Y-114468000D02*
X114954000Y-113870000D01*
X115234000Y-114710000D02*
X115234000Y-113870000D01*
X115795000Y-114998000D02*
X115795000Y-113870000D01*
X115714000Y-112190000D02*
X115714000Y-111090000D01*
X115754000Y-114984000D02*
X115754000Y-113870000D01*
X116355000Y-115107000D02*
X116355000Y-110953000D01*
X116435000Y-115110000D02*
X116435000Y-110950000D01*
X116235000Y-115097000D02*
X116235000Y-113870000D01*
X115514000Y-114881000D02*
X115514000Y-113870000D01*
X114994000Y-112190000D02*
X114994000Y-111552000D01*
X115554000Y-114900000D02*
X115554000Y-113870000D01*
X115995000Y-112190000D02*
X115995000Y-111005000D01*
X115394000Y-112190000D02*
X115394000Y-111245000D01*
X114794000Y-114284000D02*
X114794000Y-113870000D01*
X115314000Y-114765000D02*
X115314000Y-113870000D01*
X115274000Y-112190000D02*
X115274000Y-111322000D01*
X116115000Y-112190000D02*
X116115000Y-110980000D01*
X115915000Y-112190000D02*
X115915000Y-111025000D01*
X115434000Y-112190000D02*
X115434000Y-111222000D01*
X115955000Y-112190000D02*
X115955000Y-111014000D01*
X115835000Y-112190000D02*
X115835000Y-111048000D01*
X114954000Y-112190000D02*
X114954000Y-111592000D01*
X115754000Y-112190000D02*
X115754000Y-111076000D01*
X115634000Y-112190000D02*
X115634000Y-111123000D01*
X114754000Y-112190000D02*
X114754000Y-111830000D01*
X114834000Y-114334000D02*
X114834000Y-113870000D01*
X115074000Y-114582000D02*
X115074000Y-113870000D01*
X115114000Y-112190000D02*
X115114000Y-111443000D01*
X114794000Y-112190000D02*
X114794000Y-111776000D01*
X114634000Y-114043000D02*
X114634000Y-112017000D01*
X115154000Y-114649000D02*
X115154000Y-113870000D01*
X115354000Y-112190000D02*
X115354000Y-111270000D01*
X115354000Y-114790000D02*
X115354000Y-113870000D01*
X114754000Y-114230000D02*
X114754000Y-113870000D01*
X115474000Y-114860000D02*
X115474000Y-113870000D01*
X115594000Y-114919000D02*
X115594000Y-113870000D01*
X115314000Y-112190000D02*
X115314000Y-111295000D01*
X115674000Y-114954000D02*
X115674000Y-113870000D01*
X114834000Y-112190000D02*
X114834000Y-111726000D01*
X116035000Y-112190000D02*
X116035000Y-110996000D01*
X115234000Y-112190000D02*
X115234000Y-111350000D01*
X118744801Y-114225000D02*
X118344801Y-114225000D01*
X116155000Y-115086000D02*
X116155000Y-113870000D01*
X114514000Y-113798000D02*
X114514000Y-112262000D01*
X115835000Y-115012000D02*
X115835000Y-113870000D01*
X118544801Y-114425000D02*
X118544801Y-114025000D01*
X115514000Y-112190000D02*
X115514000Y-111179000D01*
X115434000Y-114838000D02*
X115434000Y-113870000D01*
X116075000Y-115072000D02*
X116075000Y-113870000D01*
X114914000Y-112190000D02*
X114914000Y-111634000D01*
X115394000Y-114815000D02*
X115394000Y-113870000D01*
X115114000Y-114617000D02*
X115114000Y-113870000D01*
X115674000Y-112190000D02*
X115674000Y-111106000D01*
X115154000Y-112190000D02*
X115154000Y-111411000D01*
X115875000Y-115024000D02*
X115875000Y-113870000D01*
X116075000Y-112190000D02*
X116075000Y-110988000D01*
X115634000Y-114937000D02*
X115634000Y-113870000D01*
X116315000Y-115104000D02*
X116315000Y-110956000D01*
X115795000Y-112190000D02*
X115795000Y-111062000D01*
X115474000Y-112190000D02*
X115474000Y-111200000D01*
X115194000Y-112190000D02*
X115194000Y-111380000D01*
X114674000Y-112190000D02*
X114674000Y-111950000D01*
X114674000Y-114110000D02*
X114674000Y-113870000D01*
X115594000Y-112190000D02*
X115594000Y-111141000D01*
X116475000Y-115110000D02*
X116475000Y-110950000D01*
X115274000Y-114738000D02*
X115274000Y-113870000D01*
X114474000Y-113694000D02*
X114474000Y-112366000D01*
X116235000Y-112190000D02*
X116235000Y-110963000D01*
X115074000Y-112190000D02*
X115074000Y-111478000D01*
X114554000Y-113889000D02*
X114554000Y-112171000D01*
X116275000Y-112190000D02*
X116275000Y-110959000D01*
X115955000Y-115046000D02*
X115955000Y-113870000D01*
X114874000Y-112190000D02*
X114874000Y-111679000D01*
X116115000Y-115080000D02*
X116115000Y-113870000D01*
X114714000Y-114172000D02*
X114714000Y-113870000D01*
X115995000Y-115055000D02*
X115995000Y-113870000D01*
X115194000Y-114680000D02*
X115194000Y-113870000D01*
X115915000Y-115035000D02*
X115915000Y-113870000D01*
X116195000Y-115092000D02*
X116195000Y-113870000D01*
X118595000Y-113030000D02*
G75*
G03*
X118595000Y-113030000I-2120000J0D01*
G01*
%TO.C,C2*%
X142881000Y-86010000D02*
X144139000Y-86010000D01*
X142881000Y-84170000D02*
X144139000Y-84170000D01*
%TO.C,C1*%
X117898400Y-103710000D02*
X117898400Y-104520000D01*
X116657400Y-103710000D02*
X116657400Y-104950000D01*
X117217400Y-100876000D02*
X117217400Y-102030000D01*
X118018400Y-103710000D02*
X118018400Y-104422000D01*
X118058400Y-103710000D02*
X118058400Y-104386000D01*
X117418400Y-100946000D02*
X117418400Y-102030000D01*
X118298400Y-101616000D02*
X118298400Y-104124000D01*
X117137400Y-100854000D02*
X117137400Y-102030000D01*
X116617400Y-100790000D02*
X116617400Y-102030000D01*
X117738400Y-101110000D02*
X117738400Y-102030000D01*
X117778400Y-103710000D02*
X117778400Y-104605000D01*
X116657400Y-100790000D02*
X116657400Y-102030000D01*
X118178400Y-103710000D02*
X118178400Y-104266000D01*
X116977400Y-100820000D02*
X116977400Y-102030000D01*
X117618400Y-101040000D02*
X117618400Y-102030000D01*
X117338400Y-100916000D02*
X117338400Y-102030000D01*
X117338400Y-103710000D02*
X117338400Y-104824000D01*
X116777400Y-103710000D02*
X116777400Y-104944000D01*
X118658400Y-102333000D02*
X118658400Y-103407000D01*
X118458400Y-101857000D02*
X118458400Y-103883000D01*
X118698400Y-102500000D02*
X118698400Y-103240000D01*
X117177400Y-100865000D02*
X117177400Y-102030000D01*
X117378400Y-100930000D02*
X117378400Y-102030000D01*
X116857400Y-103710000D02*
X116857400Y-104937000D01*
X117378400Y-103710000D02*
X117378400Y-104810000D01*
X117898400Y-101220000D02*
X117898400Y-102030000D01*
X117297400Y-100902000D02*
X117297400Y-102030000D01*
X116937400Y-103710000D02*
X116937400Y-104926000D01*
X117858400Y-103710000D02*
X117858400Y-104550000D01*
X117057400Y-103710000D02*
X117057400Y-104904000D01*
X118378400Y-101728000D02*
X118378400Y-104012000D01*
X117418400Y-103710000D02*
X117418400Y-104794000D01*
X117257400Y-100888000D02*
X117257400Y-102030000D01*
X118018400Y-101318000D02*
X118018400Y-102030000D01*
X117097400Y-103710000D02*
X117097400Y-104895000D01*
X118418400Y-101790000D02*
X118418400Y-103950000D01*
X118098400Y-103710000D02*
X118098400Y-104348000D01*
X117498400Y-100981000D02*
X117498400Y-102030000D01*
X114347599Y-101675000D02*
X114747599Y-101675000D01*
X117618400Y-103710000D02*
X117618400Y-104700000D01*
X114547599Y-101475000D02*
X114547599Y-101875000D01*
X116977400Y-103710000D02*
X116977400Y-104920000D01*
X116697400Y-100791000D02*
X116697400Y-102030000D01*
X117137400Y-103710000D02*
X117137400Y-104886000D01*
X116897400Y-100808000D02*
X116897400Y-102030000D01*
X118538400Y-102011000D02*
X118538400Y-103729000D01*
X116817400Y-103710000D02*
X116817400Y-104941000D01*
X117057400Y-100836000D02*
X117057400Y-102030000D01*
X117738400Y-103710000D02*
X117738400Y-104630000D01*
X118098400Y-101392000D02*
X118098400Y-102030000D01*
X117217400Y-103710000D02*
X117217400Y-104864000D01*
X118138400Y-103710000D02*
X118138400Y-104308000D01*
X117858400Y-101190000D02*
X117858400Y-102030000D01*
X117458400Y-103710000D02*
X117458400Y-104777000D01*
X116857400Y-100803000D02*
X116857400Y-102030000D01*
X117778400Y-101135000D02*
X117778400Y-102030000D01*
X118218400Y-101519000D02*
X118218400Y-104221000D01*
X117658400Y-101062000D02*
X117658400Y-102030000D01*
X117097400Y-100845000D02*
X117097400Y-102030000D01*
X118178400Y-101474000D02*
X118178400Y-102030000D01*
X116697400Y-103710000D02*
X116697400Y-104949000D01*
X117578400Y-103710000D02*
X117578400Y-104721000D01*
X116617400Y-103710000D02*
X116617400Y-104950000D01*
X116897400Y-103710000D02*
X116897400Y-104932000D01*
X118498400Y-101930000D02*
X118498400Y-103810000D01*
X117698400Y-101085000D02*
X117698400Y-102030000D01*
X117017400Y-100828000D02*
X117017400Y-102030000D01*
X117257400Y-103710000D02*
X117257400Y-104852000D01*
X117938400Y-103710000D02*
X117938400Y-104489000D01*
X117658400Y-103710000D02*
X117658400Y-104678000D01*
X117578400Y-101019000D02*
X117578400Y-102030000D01*
X116737400Y-100793000D02*
X116737400Y-102030000D01*
X118338400Y-101670000D02*
X118338400Y-104070000D01*
X117698400Y-103710000D02*
X117698400Y-104655000D01*
X117938400Y-101251000D02*
X117938400Y-102030000D01*
X116737400Y-103710000D02*
X116737400Y-104947000D01*
X117458400Y-100963000D02*
X117458400Y-102030000D01*
X117538400Y-103710000D02*
X117538400Y-104740000D01*
X117017400Y-103710000D02*
X117017400Y-104912000D01*
X118618400Y-102206000D02*
X118618400Y-103534000D01*
X117818400Y-101162000D02*
X117818400Y-102030000D01*
X117538400Y-101000000D02*
X117538400Y-102030000D01*
X116817400Y-100799000D02*
X116817400Y-102030000D01*
X117498400Y-103710000D02*
X117498400Y-104759000D01*
X117177400Y-103710000D02*
X117177400Y-104875000D01*
X117978400Y-103710000D02*
X117978400Y-104457000D01*
X118058400Y-101354000D02*
X118058400Y-102030000D01*
X116937400Y-100814000D02*
X116937400Y-102030000D01*
X118578400Y-102102000D02*
X118578400Y-103638000D01*
X117818400Y-103710000D02*
X117818400Y-104578000D01*
X117978400Y-101283000D02*
X117978400Y-102030000D01*
X117297400Y-103710000D02*
X117297400Y-104838000D01*
X118138400Y-101432000D02*
X118138400Y-102030000D01*
X118258400Y-101566000D02*
X118258400Y-104174000D01*
X116777400Y-100796000D02*
X116777400Y-102030000D01*
X118737400Y-102870000D02*
G75*
G03*
X118737400Y-102870000I-2120000J0D01*
G01*
%TD*%
M02*
