%TF.GenerationSoftware,KiCad,Pcbnew,(6.0.1)*%
%TF.CreationDate,2022-02-10T17:55:29+03:30*%
%TF.ProjectId,PIC Microcontroller Development Board,50494320-4d69-4637-926f-636f6e74726f,rev?*%
%TF.SameCoordinates,Original*%
%TF.FileFunction,Copper,L1,Top*%
%TF.FilePolarity,Positive*%
%FSLAX46Y46*%
G04 Gerber Fmt 4.6, Leading zero omitted, Abs format (unit mm)*
G04 Created by KiCad (PCBNEW (6.0.1)) date 2022-02-10 17:55:29*
%MOMM*%
%LPD*%
G01*
G04 APERTURE LIST*
G04 Aperture macros list*
%AMRoundRect*
0 Rectangle with rounded corners*
0 $1 Rounding radius*
0 $2 $3 $4 $5 $6 $7 $8 $9 X,Y pos of 4 corners*
0 Add a 4 corners polygon primitive as box body*
4,1,4,$2,$3,$4,$5,$6,$7,$8,$9,$2,$3,0*
0 Add four circle primitives for the rounded corners*
1,1,$1+$1,$2,$3*
1,1,$1+$1,$4,$5*
1,1,$1+$1,$6,$7*
1,1,$1+$1,$8,$9*
0 Add four rect primitives between the rounded corners*
20,1,$1+$1,$2,$3,$4,$5,0*
20,1,$1+$1,$4,$5,$6,$7,0*
20,1,$1+$1,$6,$7,$8,$9,0*
20,1,$1+$1,$8,$9,$2,$3,0*%
G04 Aperture macros list end*
%TA.AperFunction,NonConductor*%
%ADD10C,0.200000*%
%TD*%
%TA.AperFunction,ComponentPad*%
%ADD11R,1.600000X1.600000*%
%TD*%
%TA.AperFunction,ComponentPad*%
%ADD12O,1.600000X1.600000*%
%TD*%
%TA.AperFunction,ComponentPad*%
%ADD13R,2.000000X2.000000*%
%TD*%
%TA.AperFunction,ComponentPad*%
%ADD14O,2.000000X2.000000*%
%TD*%
%TA.AperFunction,ComponentPad*%
%ADD15C,2.000000*%
%TD*%
%TA.AperFunction,ComponentPad*%
%ADD16C,1.400000*%
%TD*%
%TA.AperFunction,ComponentPad*%
%ADD17O,1.400000X1.400000*%
%TD*%
%TA.AperFunction,ComponentPad*%
%ADD18R,1.700000X1.700000*%
%TD*%
%TA.AperFunction,ComponentPad*%
%ADD19O,1.700000X1.700000*%
%TD*%
%TA.AperFunction,ComponentPad*%
%ADD20R,3.500000X3.500000*%
%TD*%
%TA.AperFunction,ComponentPad*%
%ADD21RoundRect,0.750000X-0.750000X-1.000000X0.750000X-1.000000X0.750000X1.000000X-0.750000X1.000000X0*%
%TD*%
%TA.AperFunction,ComponentPad*%
%ADD22RoundRect,0.875000X-0.875000X-0.875000X0.875000X-0.875000X0.875000X0.875000X-0.875000X0.875000X0*%
%TD*%
%TA.AperFunction,ComponentPad*%
%ADD23R,1.800000X1.800000*%
%TD*%
%TA.AperFunction,ComponentPad*%
%ADD24C,1.800000*%
%TD*%
%TA.AperFunction,ComponentPad*%
%ADD25C,1.600000*%
%TD*%
%TA.AperFunction,ComponentPad*%
%ADD26R,1.200000X1.200000*%
%TD*%
%TA.AperFunction,ComponentPad*%
%ADD27C,1.200000*%
%TD*%
%TA.AperFunction,ViaPad*%
%ADD28C,0.800000*%
%TD*%
%TA.AperFunction,Conductor*%
%ADD29C,0.400000*%
%TD*%
G04 APERTURE END LIST*
D10*
X167589200Y-75996800D02*
X95250000Y-76047600D01*
X167589200Y-118770400D02*
X95402400Y-118821200D01*
X95402400Y-118821200D02*
X95250000Y-76047600D01*
X167589200Y-75996800D02*
X167589200Y-118770400D01*
D11*
%TO.P,U2,1,Vpp/~{MCLR}/RE3*%
%TO.N,MCLR*%
X120660000Y-97780000D03*
D12*
%TO.P,U2,2,RA0/AN0*%
%TO.N,RA0*%
X123200000Y-97780000D03*
%TO.P,U2,3,RA1/AN1*%
%TO.N,RA1*%
X125740000Y-97780000D03*
%TO.P,U2,4,RA2/AN2/Vref-/CVref*%
%TO.N,RA2*%
X128280000Y-97780000D03*
%TO.P,U2,5,RA3/AN3/Vref+*%
%TO.N,RA3*%
X130820000Y-97780000D03*
%TO.P,U2,6,RA4/T0CKI/C1OUT/RCV*%
%TO.N,RA4*%
X133360000Y-97780000D03*
%TO.P,U2,7,RA5/AN4/~{SS}/HLVDIN/C2OUT*%
%TO.N,RA5*%
X135900000Y-97780000D03*
%TO.P,U2,8,VSS*%
%TO.N,+5V*%
X138440000Y-97780000D03*
%TO.P,U2,9,OSC1/CLKI*%
%TO.N,OSC1*%
X140980000Y-97780000D03*
%TO.P,U2,10,RA6/OSC2/CLKO*%
%TO.N,OSC2*%
X143520000Y-97780000D03*
%TO.P,U2,11,T1OSO/T13CKI/RC0*%
%TO.N,RC0*%
X146060000Y-97780000D03*
%TO.P,U2,12,~{UOE}/CCP2/T1OSI/RC1*%
%TO.N,RC1*%
X148600000Y-97780000D03*
%TO.P,U2,13,CCP1/RC2*%
%TO.N,RC2*%
X151140000Y-97780000D03*
%TO.P,U2,14,VUSB*%
%TO.N,VUSB*%
X153680000Y-97780000D03*
%TO.P,U2,15,VM/D-/RC4*%
%TO.N,RC4*%
X153680000Y-90160000D03*
%TO.P,U2,16,VP/D+/RC5*%
%TO.N,RC5*%
X151140000Y-90160000D03*
%TO.P,U2,17,TX/CK/RC6*%
%TO.N,RC6*%
X148600000Y-90160000D03*
%TO.P,U2,18,SDO/RX/DT/RC7*%
%TO.N,RC7*%
X146060000Y-90160000D03*
%TO.P,U2,19,VSS*%
%TO.N,+5V*%
X143520000Y-90160000D03*
%TO.P,U2,20,VDD*%
X140980000Y-90160000D03*
%TO.P,U2,21,RB0/AN12/INT0/FLT0/SDI/SDA*%
%TO.N,RB0*%
X138440000Y-90160000D03*
%TO.P,U2,22,RB1/AN10/INT1/SCK/SCL*%
%TO.N,RB1*%
X135900000Y-90160000D03*
%TO.P,U2,23,RB2/AN8/INT2/VMO*%
%TO.N,RB2*%
X133360000Y-90160000D03*
%TO.P,U2,24,RB3/AN9/CCP2/VPO*%
%TO.N,RB3*%
X130820000Y-90160000D03*
%TO.P,U2,25,RB4/AN11/KBI0*%
%TO.N,RB4*%
X128280000Y-90160000D03*
%TO.P,U2,26,RB5/KBI1/PGM*%
%TO.N,RB5*%
X125740000Y-90160000D03*
%TO.P,U2,27,RB6/KBI2/PGC*%
%TO.N,RB6*%
X123200000Y-90160000D03*
%TO.P,U2,28,RB7/KBI3/PGD*%
%TO.N,RB7*%
X120660000Y-90160000D03*
%TD*%
D13*
%TO.P,U1,1,IN*%
%TO.N,Vin*%
X101600000Y-100965000D03*
D14*
%TO.P,U1,2,GND*%
%TO.N,GND*%
X101600000Y-95885000D03*
%TD*%
D15*
%TO.P,SW1,1,1*%
%TO.N,MCLR*%
X106195000Y-84745000D03*
X99695000Y-84745000D03*
%TO.P,SW1,2,2*%
%TO.N,GND*%
X106195000Y-89245000D03*
X99695000Y-89245000D03*
%TD*%
D16*
%TO.P,R2,1*%
%TO.N,Net-(D1-Pad1)*%
X110490000Y-88265000D03*
D17*
%TO.P,R2,2*%
%TO.N,GND*%
X110490000Y-93345000D03*
%TD*%
D16*
%TO.P,R1,1*%
%TO.N,+5V*%
X118110000Y-86995000D03*
D17*
%TO.P,R1,2*%
%TO.N,MCLR*%
X118110000Y-81915000D03*
%TD*%
D18*
%TO.P,J8,1,Pin_1*%
%TO.N,OSC1*%
X141645000Y-107315000D03*
D19*
%TO.P,J8,2,Pin_2*%
%TO.N,GND*%
X144185000Y-107315000D03*
%TO.P,J8,3,Pin_3*%
%TO.N,OSC2*%
X146725000Y-107315000D03*
%TD*%
D18*
%TO.P,J7,1,Pin_1*%
%TO.N,MCLR*%
X101630000Y-78715000D03*
D19*
%TO.P,J7,2,Pin_2*%
%TO.N,+5V*%
X104170000Y-78715000D03*
%TO.P,J7,3,Pin_3*%
%TO.N,GND*%
X106710000Y-78715000D03*
%TO.P,J7,4,Pin_4*%
%TO.N,RB7*%
X109250000Y-78715000D03*
%TO.P,J7,5,Pin_5*%
%TO.N,RB6*%
X111790000Y-78715000D03*
%TD*%
D18*
%TO.P,J6,1,Pin_1*%
%TO.N,VUSB*%
X163815000Y-78155000D03*
D19*
%TO.P,J6,2,Pin_2*%
%TO.N,RC0*%
X161275000Y-78155000D03*
%TO.P,J6,3,Pin_3*%
%TO.N,RC1*%
X158735000Y-78155000D03*
%TO.P,J6,4,Pin_4*%
%TO.N,RC2*%
X156195000Y-78155000D03*
%TO.P,J6,5,Pin_5*%
%TO.N,RC4*%
X153655000Y-78155000D03*
%TO.P,J6,6,Pin_6*%
%TO.N,RC5*%
X151115000Y-78155000D03*
%TO.P,J6,7,Pin_7*%
%TO.N,RC6*%
X148575000Y-78155000D03*
%TO.P,J6,8,Pin_8*%
%TO.N,RC7*%
X146035000Y-78155000D03*
%TD*%
D18*
%TO.P,J5,1,Pin_1*%
%TO.N,RB0*%
X138430000Y-78130000D03*
D19*
%TO.P,J5,2,Pin_2*%
%TO.N,RB1*%
X135890000Y-78130000D03*
%TO.P,J5,3,Pin_3*%
%TO.N,RB2*%
X133350000Y-78130000D03*
%TO.P,J5,4,Pin_4*%
%TO.N,RB3*%
X130810000Y-78130000D03*
%TO.P,J5,5,Pin_5*%
%TO.N,RB4*%
X128270000Y-78130000D03*
%TO.P,J5,6,Pin_6*%
%TO.N,RB5*%
X125730000Y-78130000D03*
%TO.P,J5,7,Pin_7*%
%TO.N,RB6*%
X123190000Y-78130000D03*
%TO.P,J5,8,Pin_8*%
%TO.N,RB7*%
X120650000Y-78130000D03*
%TD*%
D18*
%TO.P,J4,1,Pin_1*%
%TO.N,RA0*%
X123190000Y-113665000D03*
D19*
%TO.P,J4,2,Pin_2*%
%TO.N,RA1*%
X125730000Y-113665000D03*
%TO.P,J4,3,Pin_3*%
%TO.N,RA2*%
X128270000Y-113665000D03*
%TO.P,J4,4,Pin_4*%
%TO.N,RA3*%
X130810000Y-113665000D03*
%TO.P,J4,5,Pin_5*%
%TO.N,RA4*%
X133350000Y-113665000D03*
%TO.P,J4,6,Pin_6*%
%TO.N,RA5*%
X135890000Y-113665000D03*
%TD*%
D18*
%TO.P,J3,1,Pin_1*%
%TO.N,Vin*%
X142875000Y-113690000D03*
D19*
%TO.P,J3,2,Pin_2*%
%TO.N,GND*%
X145415000Y-113690000D03*
%TO.P,J3,3,Pin_3*%
X147955000Y-113690000D03*
%TO.P,J3,4,Pin_4*%
X150495000Y-113690000D03*
%TO.P,J3,5,Pin_5*%
X153035000Y-113690000D03*
%TO.P,J3,6,Pin_6*%
%TO.N,+5V*%
X155575000Y-113690000D03*
%TO.P,J3,7,Pin_7*%
X158115000Y-113690000D03*
%TO.P,J3,8,Pin_8*%
X160655000Y-113690000D03*
%TO.P,J3,9,Pin_9*%
X163195000Y-113690000D03*
%TD*%
D20*
%TO.P,J2,1*%
%TO.N,Vin*%
X110490000Y-111760000D03*
D21*
%TO.P,J2,2*%
%TO.N,GND*%
X104490000Y-111760000D03*
D22*
%TO.P,J2,3*%
%TO.N,N/C*%
X107490000Y-116460000D03*
%TD*%
D18*
%TO.P,J1,1,Pin_1*%
%TO.N,GND*%
X161290000Y-95880000D03*
D19*
%TO.P,J1,2,Pin_2*%
X161290000Y-98420000D03*
%TD*%
D23*
%TO.P,D1,1,K*%
%TO.N,Net-(D1-Pad1)*%
X113660000Y-92075000D03*
D24*
%TO.P,D1,2,A*%
%TO.N,+5V*%
X116200000Y-92075000D03*
%TD*%
D25*
%TO.P,C6,1*%
%TO.N,OSC2*%
X147360000Y-103485000D03*
%TO.P,C6,2*%
%TO.N,GND*%
X147360000Y-100985000D03*
%TD*%
%TO.P,C5,1*%
%TO.N,GND*%
X141010000Y-100985000D03*
%TO.P,C5,2*%
%TO.N,OSC1*%
X141010000Y-103485000D03*
%TD*%
%TO.P,C4,1*%
%TO.N,+5V*%
X154305000Y-108585000D03*
%TO.P,C4,2*%
%TO.N,GND*%
X151805000Y-108585000D03*
%TD*%
D26*
%TO.P,C3,1*%
%TO.N,Vin*%
X117475000Y-113030000D03*
D27*
%TO.P,C3,2*%
%TO.N,GND*%
X115475000Y-113030000D03*
%TD*%
D25*
%TO.P,C2,1*%
%TO.N,+5V*%
X142260000Y-85090000D03*
%TO.P,C2,2*%
%TO.N,GND*%
X144760000Y-85090000D03*
%TD*%
D26*
%TO.P,C1,1*%
%TO.N,+5V*%
X115867400Y-102870000D03*
D27*
%TO.P,C1,2*%
%TO.N,GND*%
X117367400Y-102870000D03*
%TD*%
D28*
%TO.N,RC1*%
X156108400Y-92151200D03*
%TO.N,+5V*%
X140614400Y-99466400D03*
X143306800Y-101854000D03*
%TD*%
D29*
%TO.N,RC1*%
X158735000Y-89524600D02*
X156108400Y-92151200D01*
X158735000Y-78155000D02*
X158735000Y-89524600D01*
%TO.N,GND*%
X99695000Y-89245000D02*
X106195000Y-89245000D01*
%TO.N,Net-(D1-Pad1)*%
X113660000Y-89326800D02*
X113660000Y-92075000D01*
X112522000Y-88188800D02*
X113660000Y-89326800D01*
X112445800Y-88265000D02*
X112522000Y-88188800D01*
X110490000Y-88265000D02*
X112445800Y-88265000D01*
%TO.N,+5V*%
X158115000Y-113690000D02*
X155575000Y-113690000D01*
X160655000Y-113690000D02*
X158115000Y-113690000D01*
X163195000Y-113690000D02*
X160655000Y-113690000D01*
X140614400Y-99314000D02*
X140614400Y-99466400D01*
X140665200Y-99263200D02*
X140614400Y-99314000D01*
X143306800Y-101854000D02*
X143306800Y-100809456D01*
X143306800Y-100809456D02*
X141760544Y-99263200D01*
X141760544Y-99263200D02*
X140665200Y-99263200D01*
%TO.N,OSC2*%
X147360000Y-103485000D02*
X143520000Y-99645000D01*
X143520000Y-99645000D02*
X143520000Y-97780000D01*
%TO.N,+5V*%
X115867400Y-92407600D02*
X116200000Y-92075000D01*
X115867400Y-102870000D02*
X115867400Y-92407600D01*
X118110000Y-90165000D02*
X116200000Y-92075000D01*
X118110000Y-86995000D02*
X118110000Y-90165000D01*
%TO.N,RB7*%
X119482000Y-76962000D02*
X120650000Y-78130000D01*
X119278400Y-76962000D02*
X119482000Y-76962000D01*
X119075200Y-76758800D02*
X119278400Y-76962000D01*
X110185200Y-76758800D02*
X119075200Y-76758800D01*
X109250000Y-78715000D02*
X110185200Y-77779800D01*
X110185200Y-77779800D02*
X110185200Y-76758800D01*
%TO.N,MCLR*%
X103733600Y-80818600D02*
X101630000Y-78715000D01*
X103733600Y-82283600D02*
X103733600Y-80818600D01*
X106195000Y-84745000D02*
X103733600Y-82283600D01*
%TO.N,GND*%
X108508800Y-95326200D02*
X110490000Y-93345000D01*
X108508800Y-95402400D02*
X108508800Y-95326200D01*
X108026200Y-95885000D02*
X108508800Y-95402400D01*
X101600000Y-95885000D02*
X108026200Y-95885000D01*
%TO.N,OSC1*%
X138729400Y-103485000D02*
X141010000Y-103485000D01*
X139192000Y-99568000D02*
X139192000Y-103022400D01*
X140980000Y-97780000D02*
X139192000Y-99568000D01*
X139192000Y-103022400D02*
X138729400Y-103485000D01*
%TO.N,Vin*%
X101600000Y-102870000D02*
X101600000Y-100965000D01*
X110490000Y-111760000D02*
X101600000Y-102870000D01*
%TO.N,GND*%
X117367400Y-111137600D02*
X117367400Y-102870000D01*
X115475000Y-113030000D02*
X117367400Y-111137600D01*
X107010200Y-93345000D02*
X106195000Y-92529800D01*
X106195000Y-92529800D02*
X106195000Y-89245000D01*
X110490000Y-93345000D02*
X107010200Y-93345000D01*
X109728000Y-85852000D02*
X108153200Y-87426800D01*
X108013200Y-87426800D02*
X106195000Y-89245000D01*
X109728000Y-85699600D02*
X109728000Y-85852000D01*
X106710000Y-82681600D02*
X109728000Y-85699600D01*
X106710000Y-78715000D02*
X106710000Y-82681600D01*
X108153200Y-87426800D02*
X108013200Y-87426800D01*
%TO.N,MCLR*%
X99695000Y-82626200D02*
X99695000Y-84745000D01*
X101630000Y-80691200D02*
X99695000Y-82626200D01*
X101630000Y-78715000D02*
X101630000Y-80691200D01*
%TO.N,OSC1*%
X141010000Y-106680000D02*
X141645000Y-107315000D01*
X141010000Y-103485000D02*
X141010000Y-106680000D01*
%TO.N,VUSB*%
X158597600Y-93522800D02*
X158597600Y-96723200D01*
X158597600Y-96723200D02*
X157540800Y-97780000D01*
X157540800Y-97780000D02*
X153680000Y-97780000D01*
X159715200Y-92405200D02*
X158597600Y-93522800D01*
X159715200Y-89712800D02*
X159715200Y-92405200D01*
X163815000Y-85613000D02*
X159715200Y-89712800D01*
X163815000Y-78155000D02*
X163815000Y-85613000D01*
%TO.N,GND*%
X161290000Y-95880000D02*
X161290000Y-98420000D01*
X153960200Y-102478200D02*
X151805000Y-102478200D01*
X158018400Y-98420000D02*
X153960200Y-102478200D01*
X161290000Y-98420000D02*
X158018400Y-98420000D01*
X106639511Y-113909511D02*
X104490000Y-111760000D01*
X114595489Y-113909511D02*
X106639511Y-113909511D01*
X115475000Y-113030000D02*
X114595489Y-113909511D01*
%TO.N,Vin*%
X142875000Y-117729000D02*
X142849600Y-117754400D01*
X142849600Y-117754400D02*
X118414800Y-117754400D01*
X142875000Y-113690000D02*
X142875000Y-117729000D01*
X118414800Y-117754400D02*
X117475000Y-116814600D01*
X117475000Y-116814600D02*
X117475000Y-113030000D01*
%TO.N,GND*%
X145415000Y-109753400D02*
X145415000Y-113690000D01*
X144185000Y-108523400D02*
X145415000Y-109753400D01*
X144185000Y-107315000D02*
X144185000Y-108523400D01*
X147955000Y-113690000D02*
X145415000Y-113690000D01*
X150495000Y-113690000D02*
X147955000Y-113690000D01*
X153035000Y-113690000D02*
X150495000Y-113690000D01*
X153035000Y-111734600D02*
X153035000Y-113690000D01*
X151805000Y-110504600D02*
X153035000Y-111734600D01*
X151805000Y-108585000D02*
X151805000Y-110504600D01*
%TO.N,+5V*%
X155575000Y-111633000D02*
X155575000Y-113690000D01*
X154305000Y-108585000D02*
X154305000Y-110363000D01*
X154305000Y-110363000D02*
X155575000Y-111633000D01*
%TO.N,GND*%
X151805000Y-102478200D02*
X151805000Y-108585000D01*
X150311800Y-100985000D02*
X151805000Y-102478200D01*
X147360000Y-100985000D02*
X150311800Y-100985000D01*
%TO.N,OSC2*%
X147360000Y-106680000D02*
X146725000Y-107315000D01*
X147360000Y-103485000D02*
X147360000Y-106680000D01*
%TO.N,RC4*%
X153655000Y-78155000D02*
X153655000Y-90135000D01*
X153655000Y-90135000D02*
X153680000Y-90160000D01*
%TO.N,RC5*%
X151115000Y-90135000D02*
X151140000Y-90160000D01*
X151115000Y-78155000D02*
X151115000Y-90135000D01*
%TO.N,RC6*%
X148575000Y-78155000D02*
X148575000Y-90135000D01*
X148575000Y-90135000D02*
X148600000Y-90160000D01*
%TO.N,RC7*%
X146060000Y-90160000D02*
X146060000Y-78180000D01*
X146060000Y-78180000D02*
X146035000Y-78155000D01*
%TO.N,+5V*%
X143520000Y-90160000D02*
X142387000Y-89027000D01*
X142387000Y-89027000D02*
X142113000Y-89027000D01*
X142113000Y-89027000D02*
X140980000Y-90160000D01*
X142260000Y-88880000D02*
X142113000Y-89027000D01*
X142260000Y-85090000D02*
X142260000Y-88880000D01*
%TO.N,RB0*%
X138430000Y-90150000D02*
X138440000Y-90160000D01*
X138430000Y-78130000D02*
X138430000Y-90150000D01*
%TO.N,RB1*%
X135890000Y-90150000D02*
X135900000Y-90160000D01*
X135890000Y-78130000D02*
X135890000Y-90150000D01*
%TO.N,RB2*%
X133350000Y-90150000D02*
X133360000Y-90160000D01*
X133350000Y-78130000D02*
X133350000Y-90150000D01*
%TO.N,RB3*%
X130810000Y-90150000D02*
X130820000Y-90160000D01*
X130810000Y-78130000D02*
X130810000Y-90150000D01*
%TO.N,RB4*%
X128270000Y-90150000D02*
X128280000Y-90160000D01*
X128270000Y-78130000D02*
X128270000Y-90150000D01*
%TO.N,RB5*%
X125730000Y-90150000D02*
X125740000Y-90160000D01*
X125730000Y-78130000D02*
X125730000Y-90150000D01*
%TO.N,RB6*%
X123190000Y-90150000D02*
X123200000Y-90160000D01*
X123190000Y-78130000D02*
X123190000Y-90150000D01*
%TO.N,RB7*%
X120650000Y-78130000D02*
X120650000Y-90150000D01*
X120650000Y-90150000D02*
X120660000Y-90160000D01*
%TO.N,RA5*%
X135900000Y-113655000D02*
X135890000Y-113665000D01*
X135900000Y-97780000D02*
X135900000Y-113655000D01*
%TO.N,RA4*%
X133360000Y-113655000D02*
X133350000Y-113665000D01*
X133360000Y-97780000D02*
X133360000Y-113655000D01*
%TO.N,RA3*%
X130820000Y-113655000D02*
X130810000Y-113665000D01*
X130820000Y-97780000D02*
X130820000Y-113655000D01*
%TO.N,RA2*%
X128280000Y-113655000D02*
X128270000Y-113665000D01*
X128280000Y-97780000D02*
X128280000Y-113655000D01*
%TO.N,RA1*%
X125740000Y-97780000D02*
X125740000Y-113655000D01*
X125740000Y-113655000D02*
X125730000Y-113665000D01*
%TO.N,RA0*%
X123190000Y-97790000D02*
X123200000Y-97780000D01*
X123190000Y-113665000D02*
X123190000Y-97790000D01*
%TD*%
M02*
