%TF.GenerationSoftware,KiCad,Pcbnew,(6.0.1)*%
%TF.CreationDate,2022-02-10T17:55:29+03:30*%
%TF.ProjectId,PIC Microcontroller Development Board,50494320-4d69-4637-926f-636f6e74726f,rev?*%
%TF.SameCoordinates,Original*%
%TF.FileFunction,Soldermask,Bot*%
%TF.FilePolarity,Negative*%
%FSLAX46Y46*%
G04 Gerber Fmt 4.6, Leading zero omitted, Abs format (unit mm)*
G04 Created by KiCad (PCBNEW (6.0.1)) date 2022-02-10 17:55:29*
%MOMM*%
%LPD*%
G01*
G04 APERTURE LIST*
G04 Aperture macros list*
%AMRoundRect*
0 Rectangle with rounded corners*
0 $1 Rounding radius*
0 $2 $3 $4 $5 $6 $7 $8 $9 X,Y pos of 4 corners*
0 Add a 4 corners polygon primitive as box body*
4,1,4,$2,$3,$4,$5,$6,$7,$8,$9,$2,$3,0*
0 Add four circle primitives for the rounded corners*
1,1,$1+$1,$2,$3*
1,1,$1+$1,$4,$5*
1,1,$1+$1,$6,$7*
1,1,$1+$1,$8,$9*
0 Add four rect primitives between the rounded corners*
20,1,$1+$1,$2,$3,$4,$5,0*
20,1,$1+$1,$4,$5,$6,$7,0*
20,1,$1+$1,$6,$7,$8,$9,0*
20,1,$1+$1,$8,$9,$2,$3,0*%
G04 Aperture macros list end*
%ADD10R,1.600000X1.600000*%
%ADD11O,1.600000X1.600000*%
%ADD12R,2.000000X2.000000*%
%ADD13O,2.000000X2.000000*%
%ADD14C,2.000000*%
%ADD15C,1.400000*%
%ADD16O,1.400000X1.400000*%
%ADD17R,1.700000X1.700000*%
%ADD18O,1.700000X1.700000*%
%ADD19R,3.500000X3.500000*%
%ADD20RoundRect,0.750000X-0.750000X-1.000000X0.750000X-1.000000X0.750000X1.000000X-0.750000X1.000000X0*%
%ADD21RoundRect,0.875000X-0.875000X-0.875000X0.875000X-0.875000X0.875000X0.875000X-0.875000X0.875000X0*%
%ADD22R,1.800000X1.800000*%
%ADD23C,1.800000*%
%ADD24C,1.600000*%
%ADD25R,1.200000X1.200000*%
%ADD26C,1.200000*%
G04 APERTURE END LIST*
D10*
%TO.C,U2*%
X120660000Y-97780000D03*
D11*
X123200000Y-97780000D03*
X125740000Y-97780000D03*
X128280000Y-97780000D03*
X130820000Y-97780000D03*
X133360000Y-97780000D03*
X135900000Y-97780000D03*
X138440000Y-97780000D03*
X140980000Y-97780000D03*
X143520000Y-97780000D03*
X146060000Y-97780000D03*
X148600000Y-97780000D03*
X151140000Y-97780000D03*
X153680000Y-97780000D03*
X153680000Y-90160000D03*
X151140000Y-90160000D03*
X148600000Y-90160000D03*
X146060000Y-90160000D03*
X143520000Y-90160000D03*
X140980000Y-90160000D03*
X138440000Y-90160000D03*
X135900000Y-90160000D03*
X133360000Y-90160000D03*
X130820000Y-90160000D03*
X128280000Y-90160000D03*
X125740000Y-90160000D03*
X123200000Y-90160000D03*
X120660000Y-90160000D03*
%TD*%
D12*
%TO.C,U1*%
X101600000Y-100965000D03*
D13*
X101600000Y-95885000D03*
%TD*%
D14*
%TO.C,SW1*%
X106195000Y-84745000D03*
X99695000Y-84745000D03*
X106195000Y-89245000D03*
X99695000Y-89245000D03*
%TD*%
D15*
%TO.C,R2*%
X110490000Y-88265000D03*
D16*
X110490000Y-93345000D03*
%TD*%
D15*
%TO.C,R1*%
X118110000Y-86995000D03*
D16*
X118110000Y-81915000D03*
%TD*%
D17*
%TO.C,J8*%
X141645000Y-107315000D03*
D18*
X144185000Y-107315000D03*
X146725000Y-107315000D03*
%TD*%
D17*
%TO.C,J7*%
X101630000Y-78715000D03*
D18*
X104170000Y-78715000D03*
X106710000Y-78715000D03*
X109250000Y-78715000D03*
X111790000Y-78715000D03*
%TD*%
D17*
%TO.C,J6*%
X163815000Y-78155000D03*
D18*
X161275000Y-78155000D03*
X158735000Y-78155000D03*
X156195000Y-78155000D03*
X153655000Y-78155000D03*
X151115000Y-78155000D03*
X148575000Y-78155000D03*
X146035000Y-78155000D03*
%TD*%
D17*
%TO.C,J5*%
X138430000Y-78130000D03*
D18*
X135890000Y-78130000D03*
X133350000Y-78130000D03*
X130810000Y-78130000D03*
X128270000Y-78130000D03*
X125730000Y-78130000D03*
X123190000Y-78130000D03*
X120650000Y-78130000D03*
%TD*%
D17*
%TO.C,J4*%
X123190000Y-113665000D03*
D18*
X125730000Y-113665000D03*
X128270000Y-113665000D03*
X130810000Y-113665000D03*
X133350000Y-113665000D03*
X135890000Y-113665000D03*
%TD*%
D17*
%TO.C,J3*%
X142875000Y-113690000D03*
D18*
X145415000Y-113690000D03*
X147955000Y-113690000D03*
X150495000Y-113690000D03*
X153035000Y-113690000D03*
X155575000Y-113690000D03*
X158115000Y-113690000D03*
X160655000Y-113690000D03*
X163195000Y-113690000D03*
%TD*%
D19*
%TO.C,J2*%
X110490000Y-111760000D03*
D20*
X104490000Y-111760000D03*
D21*
X107490000Y-116460000D03*
%TD*%
D17*
%TO.C,J1*%
X161290000Y-95880000D03*
D18*
X161290000Y-98420000D03*
%TD*%
D22*
%TO.C,D1*%
X113660000Y-92075000D03*
D23*
X116200000Y-92075000D03*
%TD*%
D24*
%TO.C,C6*%
X147360000Y-103485000D03*
X147360000Y-100985000D03*
%TD*%
%TO.C,C5*%
X141010000Y-100985000D03*
X141010000Y-103485000D03*
%TD*%
%TO.C,C4*%
X154305000Y-108585000D03*
X151805000Y-108585000D03*
%TD*%
D25*
%TO.C,C3*%
X117475000Y-113030000D03*
D26*
X115475000Y-113030000D03*
%TD*%
D24*
%TO.C,C2*%
X142260000Y-85090000D03*
X144760000Y-85090000D03*
%TD*%
D25*
%TO.C,C1*%
X115867400Y-102870000D03*
D26*
X117367400Y-102870000D03*
%TD*%
M02*
